# xmcd CD database file
#
# Track frame offsets:
#	150
#	12275
#	25577
#	38257
#	51382
#	63900
#	77835
#	90552
#	105600
#	118940
#	133100
#	147445
#	161545
#	175180
#	190002
#	205252
#	218437
#	231165
#	242282
#	255497
#	269247
#	283597
#
# Disc length: 3960 seconds
#
# Revision: 2
# Processed by: cddbd v1.5.2PL0 Copyright (c) Steve Scherf et al.
# Submitted via: CDex 1.51
#
DISCID=2d0f7616
DTITLE=Big Bill Broonzy - The Post War Years - Vol.2  {1945-1949}
DYEAR=2000
DGENRE=Jazz
TTITLE0=Partnership Woman
TTITLE1=Cell N°13 Blues
TTITLE2=Oh Baby
TTITLE3=When I get To Thinkin'
TTITLE4=Roll Them Bones
TTITLE5=Why Did You Do That To Me
TTITLE6=Please Believe Me
TTITLE7=Old Man Blues
TTITLE8=I Can Fix It
TTITLE9=San Antonio Blues
TTITLE10=Saturday Evening Blues
TTITLE11=Big Bill's Boogie
TTITLE12=Shoo Blues
TTITLE13=Summer Time Blues
TTITLE14=Bad Luck man
TTITLE15=Rambling Bill
TTITLE16=Water Coast Blues
TTITLE17=I Stay Blue All The Time
TTITLE18=You've Been Mistreating me
TTITLE19=I Love My Whiskey
TTITLE20=Mindin' My Own Business
TTITLE21=Keep Your Hand Off Her
EXTD=YEAR: 2000
EXTT0=
EXTT1=
EXTT2=
EXTT3=
EXTT4=
EXTT5=
EXTT6=
EXTT7=
EXTT8=
EXTT9=
EXTT10=
EXTT11=
EXTT12=
EXTT13=
EXTT14=
EXTT15=
EXTT16=
EXTT17=
EXTT18=
EXTT19=
EXTT20=
EXTT21=
PLAYORDER=
